<svg preserveAspectRatio="none" width="100%" height="100%" overflow="visible" style="display: block;" viewBox="0 0 92 14" fill="none" xmlns="http://www.w3.org/2000/svg">
<path id="Vector" d="M13.6279 10.8192C13.6279 11.1231 13.574 11.449 13.4662 11.7972C13.3648 12.1454 13.1936 12.4682 12.9527 12.7657C12.7181 13.0632 12.4106 13.3132 12.0302 13.5158C11.6498 13.712 11.1838 13.8101 10.6322 13.8101H1.24581C1.06829 13.8101 0.903454 13.7785 0.751294 13.7152C0.599133 13.6519 0.465991 13.5664 0.351872 13.4588C0.244092 13.3449 0.158501 13.2119 0.0951004 13.06C0.0317004 12.9081 0 12.7435 0 12.5663V1.4383C0 1.26739 0.0317004 1.10598 0.0951004 0.954058C0.158501 0.80214 0.244092 0.669211 0.351872 0.555273C0.465991 0.441336 0.599133 0.352716 0.751294 0.289418C0.903454 0.226119 1.06829 0.194469 1.24581 0.194469H9.51954C9.82386 0.194469 10.1504 0.248274 10.4991 0.355882C10.8478 0.46349 11.1711 0.637563 11.4691 0.878101C11.7734 1.11231 12.0238 1.41931 12.2204 1.7991C12.4233 2.1789 12.5247 2.64415 12.5247 3.19485V3.66008C12.5247 4.09686 12.4518 4.56845 12.306 5.07484C12.1602 5.57488 11.9256 6.04964 11.6022 6.49906C11.8812 6.66999 12.1412 6.87569 12.3821 7.11623C12.6293 7.35677 12.8449 7.63529 13.0288 7.95177C13.2126 8.26828 13.3584 8.62591 13.4662 9.02471C13.574 9.42347 13.6279 9.86342 13.6279 10.3445V10.8192ZM11.1553 10.3445C11.1553 10.0216 11.1045 9.73366 11.0031 9.48044C10.9017 9.22091 10.759 8.99936 10.5752 8.8158C10.3913 8.63223 10.1694 8.493 9.90946 8.39804C9.64952 8.29677 9.35789 8.24611 9.03454 8.24611H3.46165V5.75845H7.92185C8.24519 5.75845 8.53685 5.711 8.79677 5.61604C9.05671 5.51476 9.27862 5.37232 9.46248 5.18876C9.64633 5.00519 9.78582 4.78682 9.88093 4.53364C9.98237 4.27411 10.0331 3.98291 10.0331 3.66008V3.19485C10.0331 2.84037 9.86191 2.66314 9.51954 2.66314H2.47261V11.3414H10.6322C10.6766 11.3414 10.7305 11.3383 10.7939 11.3319C10.8573 11.3256 10.9144 11.3066 10.9651 11.275C11.0158 11.2433 11.0602 11.1895 11.0982 11.1136C11.1363 11.0376 11.1553 10.9332 11.1553 10.8002V10.3445ZM26.999 8.24611H19.1912V5.75845H26.999V8.24611ZM28.1117 13.8101H19.1912C18.8489 13.8101 18.4748 13.75 18.0691 13.6297C17.6633 13.5095 17.2861 13.3132 16.9374 13.041C16.595 12.7625 16.3065 12.4049 16.072 11.9681C15.8437 11.525 15.7296 10.9838 15.7296 10.3445V1.4383C15.7296 1.26739 15.7613 1.10598 15.8247 0.954058C15.8881 0.80214 15.9737 0.669211 16.0815 0.555273C16.1956 0.441336 16.3287 0.352716 16.4809 0.289418C16.6331 0.226119 16.7979 0.194469 16.9754 0.194469H28.1117V2.66314H18.2022V10.3445C18.2022 10.6673 18.2878 10.9142 18.459 11.0851C18.6302 11.256 18.8806 11.3414 19.2103 11.3414H28.1117V13.8101ZM43.8887 13.8101H41.4162V10.4679H32.7241V13.8101H30.2514V7.00228C30.2514 6.00848 30.4226 5.09383 30.765 4.25826C31.1073 3.42272 31.5828 2.70428 32.1915 2.10294C32.8001 1.50159 33.5197 1.03318 34.3504 0.697699C35.1807 0.362212 36.0874 0.194469 37.07 0.194469H42.6429C42.8142 0.194469 42.9759 0.226119 43.1281 0.289418C43.2801 0.352716 43.4132 0.441336 43.5274 0.555273C43.6417 0.669211 43.7303 0.80214 43.7936 0.954058C43.8572 1.10598 43.8887 1.26739 43.8887 1.4383V13.8101ZM32.7241 7.99925H41.4162V2.66314H37.07C36.994 2.66314 36.8324 2.6758 36.585 2.70112C36.3441 2.7201 36.0621 2.77391 35.7387 2.86253C35.4216 2.95115 35.0856 3.08724 34.7305 3.27082C34.3757 3.45438 34.0492 3.70756 33.7512 4.03039C33.4532 4.35322 33.2058 4.75833 33.0094 5.24573C32.8192 5.72682 32.7241 6.31232 32.7241 7.00228V7.99925ZM59.0953 2.66314H53.6461V13.8101H51.1736V2.66314H45.7146V0.194469H59.0953V2.66314ZM76.7937 13.8101H74.302V5.7015L69.9178 13.4018C69.81 13.5981 69.6578 13.7468 69.4614 13.8481C69.2712 13.9494 69.0651 14 68.843 14C68.6275 14 68.4246 13.9494 68.2344 13.8481C68.0507 13.7468 67.9049 13.5981 67.7971 13.4018L63.3938 5.7015V13.8101H60.9213V1.2484C60.9213 0.963554 61.0037 0.710358 61.1686 0.488809C61.3397 0.267263 61.5617 0.11851 61.8344 0.0425509C61.9675 0.0109014 62.1006 0.00140652 62.2337 0.0140665C62.3668 0.0203963 62.4937 0.0488811 62.6141 0.0995201C62.7407 0.14383 62.855 0.210294 62.9566 0.298914C63.0579 0.3812 63.1435 0.482479 63.2133 0.602749L68.843 10.373L74.4731 0.602749C74.6188 0.362212 74.8188 0.191304 75.0723 0.0900255C75.3323 -0.0112532 75.6017 -0.0270779 75.8806 0.0425509C76.1467 0.11851 76.3655 0.267263 76.5366 0.488809C76.708 0.710358 76.7937 0.963554 76.7937 1.2484V13.8101ZM90.8872 8.24611H83.0797V5.75845H90.8872V8.24611ZM92 13.8101H83.0797C82.7373 13.8101 82.3633 13.75 81.9576 13.6297C81.5518 13.5095 81.1746 13.3132 80.8257 13.041C80.4835 12.7625 80.1949 12.4049 79.9602 11.9681C79.732 11.525 79.6181 10.9838 79.6181 10.3445V1.4383C79.6181 1.26739 79.6496 1.10598 79.7132 0.954058C79.7765 0.80214 79.8622 0.669211 79.97 0.555273C80.0839 0.441336 80.217 0.352716 80.3693 0.289418C80.5215 0.226119 80.6864 0.194469 80.864 0.194469H92V2.66314H82.0907V10.3445C82.0907 10.6673 82.1764 10.9142 82.3474 11.0851C82.5185 11.256 82.7691 11.3414 83.0986 11.3414H92V13.8101Z" fill="var(--fill-0, white)"/>
</svg>
