<svg preserveAspectRatio="none" width="100%" height="100%" overflow="visible" style="display: block;" viewBox="0 0 336 336" fill="none" xmlns="http://www.w3.org/2000/svg">
<g id="noun-voice-7962361 1">
<path id="Vector" d="M203.846 235.2V100.8C203.846 97.0855 206.851 94.08 210.566 94.08C214.267 94.08 217.286 97.0855 217.286 100.8V235.2C217.286 238.914 214.267 241.92 210.566 241.92C206.851 241.92 203.846 238.914 203.846 235.2ZM90.356 213.977V122.025C90.356 118.31 93.3615 115.305 97.076 115.305C100.554 115.305 103.415 117.943 103.757 121.329L103.796 122.025V213.977L103.757 214.673C103.415 218.059 100.554 220.697 97.076 220.697C93.3615 220.697 90.356 217.691 90.356 213.977ZM118.72 213.977V122.025C118.72 118.31 121.739 115.305 125.44 115.305C128.918 115.305 131.793 117.943 132.134 121.329L132.16 122.025V213.977L132.134 214.673C131.792 218.059 128.918 220.697 125.44 220.697C121.962 220.697 119.101 218.059 118.759 214.673L118.72 213.977ZM232.21 213.977V122.025C232.223 118.31 235.228 115.305 238.93 115.305C242.644 115.305 245.65 118.31 245.65 122.025V213.977C245.65 217.691 242.644 220.697 238.93 220.697C235.228 220.697 232.223 217.691 232.21 213.977ZM288.963 203.372V132.627C288.963 128.913 291.968 125.907 295.683 125.907C299.397 125.907 302.403 128.913 302.403 132.627V203.372C302.403 207.086 299.397 210.092 295.683 210.092C291.968 210.092 288.963 207.086 288.963 203.372ZM61.978 196.297V139.701C61.978 135.986 64.9835 132.981 68.698 132.981C72.4125 132.981 75.418 135.986 75.418 139.701V196.297C75.418 200.012 72.4125 203.017 68.698 203.017C64.9835 203.017 61.978 200.012 61.978 196.297ZM260.585 192.754V143.247C260.585 139.532 263.59 136.527 267.305 136.527C271.019 136.527 274.025 139.532 274.025 143.247V192.754C274.025 196.468 271.019 199.474 267.305 199.474C263.59 199.474 260.585 196.468 260.585 192.754ZM147.095 189.223V146.775C147.095 143.074 150.101 140.055 153.815 140.055C157.53 140.055 160.535 143.061 160.535 146.775V189.223C160.535 192.938 157.53 195.943 153.815 195.943C150.101 195.943 147.095 192.924 147.095 189.223ZM33.6056 175.074V160.926C33.6056 157.211 36.6111 154.206 40.3256 154.206C44.0401 154.206 47.0456 157.211 47.0456 160.926V175.074C47.0456 178.789 44.0401 181.794 40.3256 181.794C36.6111 181.794 33.6056 178.789 33.6056 175.074ZM175.476 175.074V160.926C175.476 157.211 178.482 154.206 182.196 154.206C185.91 154.206 188.916 157.211 188.916 160.926V175.074C188.916 178.789 185.91 181.794 182.196 181.794C178.482 181.794 175.476 178.789 175.476 175.074Z" fill="url(#paint0_linear_23_59)"/>
</g>
<defs>
<linearGradient id="paint0_linear_23_59" x1="168.004" y1="94.08" x2="168.004" y2="241.92" gradientUnits="userSpaceOnUse">
<stop stop-color="#BC58FF"/>
<stop offset="1" stop-color="#713599"/>
</linearGradient>
</defs>
</svg>
