<svg preserveAspectRatio="none" width="100%" height="100%" overflow="visible" style="display: block;" viewBox="0 0 185 28" fill="none" xmlns="http://www.w3.org/2000/svg">
<path id="Vector" d="M27.4039 21.6385C27.4039 22.2461 27.2955 22.8981 27.0788 23.5944C26.8748 24.2907 26.5306 24.9364 26.0461 25.5313C25.5744 26.1264 24.9561 26.6264 24.1912 27.0316C23.4262 27.424 22.4892 27.6202 21.38 27.6202H2.50517C2.1482 27.6202 1.81673 27.5569 1.51075 27.4303C1.20478 27.3037 0.937048 27.1328 0.707568 26.9176C0.490837 26.6898 0.318724 26.4239 0.191235 26.12C0.0637453 25.8162 0 25.4871 0 25.1326V2.87659C0 2.53478 0.0637453 2.21195 0.191235 1.90812C0.318724 1.60428 0.490837 1.33842 0.707568 1.11055C0.937048 0.882671 1.20478 0.705432 1.51075 0.578835C1.81673 0.452239 2.1482 0.388938 2.50517 0.388938H19.1426C19.7545 0.388938 20.4111 0.496548 21.1123 0.711765C21.8135 0.926981 22.4637 1.27513 23.0629 1.7562C23.6748 2.22461 24.1784 2.83862 24.5736 3.5982C24.9816 4.3578 25.1856 5.2883 25.1856 6.3897V7.32017C25.1856 8.19372 25.0389 9.1369 24.7457 10.1497C24.4525 11.1498 23.9808 12.0993 23.3306 12.9981C23.8915 13.34 24.4143 13.7514 24.8987 14.2325C25.3959 14.7135 25.8294 15.2706 26.1991 15.9035C26.5689 16.5366 26.8621 17.2518 27.0788 18.0494C27.2955 18.8469 27.4039 19.7268 27.4039 20.6889V21.6385ZM22.4318 20.6889C22.4318 20.0433 22.3298 19.4673 22.1258 18.9609C21.9218 18.4418 21.635 17.9987 21.2653 17.6316C20.8956 17.2645 20.4494 16.986 19.9266 16.7961C19.4039 16.5935 18.8175 16.4922 18.1673 16.4922H6.96093V11.5169H15.9298C16.58 11.5169 17.1665 11.422 17.6892 11.2321C18.2119 11.0295 18.6581 10.7446 19.0278 10.3775C19.3975 10.0104 19.678 9.57364 19.8693 9.06728C20.0732 8.54822 20.1752 7.96582 20.1752 7.32017V6.3897C20.1752 5.68074 19.831 5.32627 19.1426 5.32627H4.97209V22.6829H21.38C21.4693 22.6829 21.5776 22.6765 21.7051 22.6639C21.8326 22.6513 21.9473 22.6133 22.0493 22.5499C22.1513 22.4867 22.2406 22.3791 22.3171 22.2272C22.3936 22.0752 22.4318 21.8663 22.4318 21.6005V20.6889ZM54.2915 16.4922H38.5911V11.5169H54.2915V16.4922ZM56.5289 27.6202H38.5911C37.9026 27.6202 37.1505 27.5 36.3345 27.2595C35.5186 27.0189 34.76 26.6264 34.0589 26.0821C33.3704 25.525 32.7903 24.8098 32.3186 23.9362C31.8596 23.05 31.6302 21.9676 31.6302 20.6889V2.87659C31.6302 2.53478 31.6939 2.21195 31.8214 1.90812C31.9489 1.60428 32.121 1.33842 32.3377 1.11055C32.5672 0.882671 32.835 0.705432 33.1409 0.578835C33.4469 0.452239 33.7784 0.388938 34.1354 0.388938H56.5289V5.32627H36.6023V20.6889C36.6023 21.3346 36.7744 21.8284 37.1186 22.1702C37.4628 22.512 37.9664 22.6829 38.6293 22.6829H56.5289V27.6202ZM88.2545 27.6202H83.2825V20.9358H65.8039V27.6202H60.8317V14.0046C60.8317 12.017 61.1759 10.1877 61.8643 8.51652C62.5528 6.84544 63.509 5.40856 64.7329 4.20587C65.9566 3.00319 67.4038 2.06636 69.0742 1.3954C70.7439 0.724424 72.567 0.388938 74.5429 0.388938H85.7492C86.0939 0.388938 86.4189 0.452239 86.7251 0.578835C87.0306 0.705432 87.2982 0.882671 87.528 1.11055C87.7577 1.33842 87.9359 1.60428 88.0632 1.90812C88.1911 2.21195 88.2545 2.53478 88.2545 2.87659V27.6202ZM65.8039 15.9985H83.2825V5.32627H74.5429C74.3901 5.32627 74.0651 5.35159 73.5677 5.40223C73.0833 5.44021 72.5161 5.54782 71.8659 5.72505C71.2282 5.90229 70.5526 6.17448 69.8385 6.54164C69.1251 6.90877 68.4684 7.41513 67.8692 8.06078C67.27 8.70644 66.7726 9.51667 66.3777 10.4915C65.9951 11.4536 65.8039 12.6246 65.8039 14.0046V15.9985ZM118.833 5.32627H107.875V27.6202H102.903V5.32627H91.9262V0.388938H118.833V5.32627ZM154.422 27.6202H149.412V11.403L140.596 26.8036C140.379 27.1961 140.073 27.4936 139.678 27.6962C139.295 27.8988 138.881 28 138.434 28C138.001 28 137.593 27.8988 137.21 27.6962C136.841 27.4936 136.548 27.1961 136.331 26.8036L127.477 11.403V27.6202H122.505V2.4968C122.505 1.92711 122.671 1.42072 123.002 0.977617C123.346 0.534525 123.793 0.23702 124.341 0.0851018C124.609 0.0218029 124.876 0.00281303 125.144 0.028133C125.411 0.0407927 125.667 0.0977622 125.909 0.19904C126.163 0.287659 126.393 0.420588 126.597 0.597827C126.801 0.762401 126.973 0.964958 127.114 1.2055L138.434 20.7459L149.756 1.2055C150.049 0.724424 150.451 0.382608 150.961 0.180051C151.483 -0.0225063 152.025 -0.0541558 152.586 0.0851018C153.121 0.23702 153.561 0.534525 153.905 0.977617C154.25 1.42072 154.422 1.92711 154.422 2.4968V27.6202ZM182.762 16.4922H167.063V11.5169H182.762V16.4922ZM185 27.6202H167.063C166.374 27.6202 165.622 27.5 164.806 27.2595C163.99 27.0189 163.232 26.6264 162.53 26.0821C161.842 25.525 161.262 24.8098 160.79 23.9362C160.331 23.05 160.102 21.9676 160.102 20.6889V2.87659C160.102 2.53478 160.165 2.21195 160.293 1.90812C160.42 1.60428 160.593 1.33842 160.809 1.11055C161.038 0.882671 161.306 0.705432 161.612 0.578835C161.918 0.452239 162.25 0.388938 162.607 0.388938H185V5.32627H165.074V20.6889C165.074 21.3346 165.246 21.8284 165.59 22.1702C165.934 22.512 166.438 22.6829 167.1 22.6829H185V27.6202Z" fill="var(--fill-0, white)"/>
</svg>
